<?xml version="1.0" encoding="UTF-8" standalone="no"?>
<!DOCTYPE svg PUBLIC "-//W3C//DTD SVG 1.1//EN" "http://www.w3.org/Graphics/SVG/1.1/DTD/svg11.dtd">
<svg width="100%" height="100%" viewBox="0 0 180 180" version="1.1" xmlns="http://www.w3.org/2000/svg" xmlns:xlink="http://www.w3.org/1999/xlink" xml:space="preserve" xmlns:serif="http://www.serif.com/" style="fill-rule:evenodd;clip-rule:evenodd;stroke-linejoin:round;stroke-miterlimit:2;">
    <g transform="matrix(1,0,0,1,-3267,0)">
        <g id="Touch-Icon" serif:id="Touch Icon" transform="matrix(0.409091,0,0,0.563694,1896.55,-34.2036)">
            <rect x="3350" y="60.678" width="440" height="319.322" style="fill:none;"/>
            <clipPath id="_clip1">
                <rect x="3350" y="60.678" width="440" height="319.322"/>
            </clipPath>
            <g clip-path="url(#_clip1)">
                <g transform="matrix(3.38462,0,0,2.66102,-7775.23,7.45723)">
                    <path d="M3417,25.799C3417,22.596 3414.19,20 3410.72,20L3293.28,20C3289.81,20 3287,22.596 3287,25.799L3287,134.201C3287,137.404 3289.81,140 3293.28,140L3410.72,140C3414.19,140 3417,137.404 3417,134.201L3417,25.799Z"/>
                </g>
                <g transform="matrix(0.35376,0,0,0.3246,2019.93,-540.785)">
                    <g transform="matrix(25.222,0,0,19.9488,-11685.3,-8969.03)">
                        <path d="M623.835,559.937C621.783,558.953 622.827,558.725 623.031,558.677C623.115,558.665 623.199,558.653 623.283,558.653C623.775,558.653 624.219,558.845 624.556,559.157L624.544,559.505L624.904,559.169L625.504,558.605L625.852,558.269L625.504,558.257C624.94,557.694 624.147,557.346 623.283,557.346C622.671,557.346 622.095,557.526 621.603,557.826C620.944,558.209 620.476,559.325 621.555,560.021C622.119,560.369 622.815,560.765 623.619,561.125C626.055,562.193 626.223,564.786 623.283,564.846C622.815,564.858 622.383,564.666 622.059,564.378L622.071,564.03L621.891,564.21L621.747,564.342L621.711,564.378L621.112,564.942L621.112,564.93L620.752,565.266L621.1,565.278C621.663,565.817 622.443,566.153 623.283,566.153C624.844,566.153 626.091,565.601 626.727,564.09C627.255,562.866 626.571,561.233 623.835,559.937Z" style="fill:white;"/>
                    </g>
                    <g transform="matrix(25.222,0,0,19.9488,-11685.3,-8969.03)">
                        <path d="M631.264,557.358L631.264,557.346L627.316,557.346L627.664,557.693L627.664,565.806L627.316,566.153L629.319,566.153L628.971,565.806L628.971,560.981L631.264,560.981L631.264,560.957C632.247,560.945 633.039,560.154 633.039,559.157C633.039,558.173 632.247,557.37 631.264,557.358ZM631.264,559.662L629.511,559.662L629.511,559.674L628.971,559.674L628.971,558.653L631.24,558.653C631.516,558.653 631.744,558.881 631.744,559.157C631.744,559.434 631.528,559.65 631.264,559.662Z" style="fill:white;"/>
                    </g>
                    <g transform="matrix(25.222,0,0,19.9488,-11685.3,-8969.03)">
                        <path d="M640.275,565.818L636.567,557.585L636.807,557.346L636.459,557.346L636.459,557.358L636.459,557.346L634.672,557.346L634.912,557.585L632.308,563.345L631.96,563.693L633.928,563.693L633.688,563.453L635.739,558.941L637.563,562.998C636.699,562.65 635.727,562.578 634.804,562.806L634.492,562.662L634.576,562.89L634.96,563.933L635.116,564.353L635.259,564.041C636.711,563.765 638.235,564.497 638.883,565.926L638.655,566.153L640.623,566.153L640.275,565.806L640.275,565.818ZM635.02,557.358L635.02,557.346L635.02,557.358Z" style="fill:white;"/>
                    </g>
                    <g transform="matrix(25.222,0,0,19.9488,-11685.3,-8969.03)">
                        <path d="M647.835,564.486L646.863,563.574L646.683,563.406L646.695,563.802C646.119,564.45 645.279,564.87 644.343,564.87C642.627,564.87 641.247,563.478 641.247,561.773C641.247,560.057 642.627,558.665 644.343,558.665C645.123,558.665 645.831,558.953 646.383,559.421C645.927,559.733 645.519,560.093 645.171,560.513L644.763,560.585L645.231,560.921C645.423,561.065 645.615,561.209 645.807,561.353L646.275,561.701L646.215,561.305C646.803,560.621 647.379,560.189 648.327,559.853C648.099,559.337 647.631,558.809 647.631,558.809C646.815,557.909 645.651,557.346 644.343,557.346C641.907,557.346 639.928,559.325 639.928,561.773C639.928,564.21 641.907,566.189 644.343,566.189C645.663,566.189 646.839,565.613 647.643,564.702L648.051,564.69L647.835,564.486Z" style="fill:white;"/>
                    </g>
                    <g transform="matrix(25.222,0,0,19.9488,-11685.3,-8969.03)">
                        <path d="M653.295,557.346L648.748,557.346L649.096,557.693L649.096,560.25C648.976,560.238 648.868,560.202 648.748,560.166L648.748,561.473C648.868,561.509 648.976,561.545 649.096,561.569L649.096,565.805L648.748,566.153L653.295,566.153L653.295,564.498L652.935,564.846L650.403,564.846L650.403,561.521C651.051,561.425 651.711,561.257 652.359,561.377L652.707,561.725L652.707,560.166C651.939,559.89 651.171,560.094 650.403,560.214L650.403,558.653L653.295,558.653L653.295,557.346Z" style="fill:white;"/>
                    </g>
                    <g transform="matrix(25.222,0,0,19.9488,-12753.2,-8754.54)">
                        <path d="M664.431,565.818L660.723,557.585L660.963,557.346L660.615,557.346L660.615,557.358L660.615,557.346L658.828,557.346L659.068,557.585L656.464,563.345L656.116,563.693L658.084,563.693L657.844,563.453L659.895,558.941L661.719,562.998C660.855,562.65 659.883,562.578 658.96,562.806L658.648,562.662L658.732,562.89L659.116,563.933L659.272,564.353L659.415,564.041C660.867,563.765 662.391,564.497 663.039,565.926L662.811,566.153L664.779,566.153L664.431,565.806L664.431,565.818ZM659.176,557.358L659.176,557.346L659.176,557.358Z" style="fill:white;"/>
                    </g>
                    <g transform="matrix(25.222,0,0,19.9488,-12753.2,-8754.54)">
                        <path d="M669.783,561.473L669.795,561.473L669.795,560.166C668.728,559.686 667.66,560.634 666.591,560.166L666.591,561.473C667.131,561.701 667.66,561.593 668.2,561.473C667.864,562.013 667.276,562.386 666.591,562.386C665.571,562.386 664.731,561.545 664.731,560.514C664.731,559.494 665.571,558.653 666.591,558.653C667.071,558.653 667.492,558.833 667.828,559.121L667.816,559.469L667.996,559.289L668.152,559.145L668.176,559.133L668.776,558.569L669.135,558.233L668.788,558.221C668.212,557.682 667.444,557.346 666.591,557.346C664.839,557.346 663.424,558.761 663.424,560.514C663.424,562.266 664.839,563.693 666.591,563.693C667.3,563.693 667.948,563.465 668.476,563.069L668.476,565.806L668.128,566.153L670.131,566.153L669.783,565.806L669.783,561.473Z" style="fill:white;"/>
                    </g>
                    <g transform="matrix(25.222,0,0,19.9488,-12753.2,-8754.54)">
                        <path d="M675.099,557.346L670.552,557.346L670.9,557.693L670.9,560.25C670.78,560.238 670.672,560.202 670.552,560.166L670.552,561.473C670.672,561.509 670.78,561.545 670.9,561.569L670.9,565.805L670.552,566.153L675.099,566.153L675.099,564.498L674.739,564.846L672.207,564.846L672.207,561.521C672.855,561.425 673.515,561.257 674.163,561.377L674.511,561.725L674.511,560.166C673.743,559.89 672.975,560.094 672.207,560.214L672.207,558.653L675.099,558.653L675.099,557.346Z" style="fill:white;"/>
                    </g>
                    <g transform="matrix(25.222,0,0,19.9488,-12776,-8754.54)">
                        <path d="M683.271,557.346L681.268,557.346L681.616,557.693L681.616,560.046C680.944,560.094 680.259,560.226 679.575,560.274L679.575,557.693L679.923,557.346L677.92,557.346L678.268,557.693L678.268,560.238C678.16,560.214 678.052,560.19 677.944,560.166L677.944,561.473C678.052,561.497 678.16,561.521 678.268,561.545L678.268,565.806L677.92,566.153L679.923,566.153L679.575,565.806L679.575,561.581C680.259,561.533 680.944,561.413 681.616,561.353L681.616,565.806L681.268,566.153L683.271,566.153L682.923,565.806L682.923,561.401C683.043,561.413 683.163,561.437 683.271,561.473L683.271,560.166C683.163,560.13 683.043,560.106 682.923,560.094L682.923,557.693L683.271,557.346Z" style="fill:white;"/>
                    </g>
                    <g transform="matrix(25.222,0,0,19.9488,-12776,-8754.54)">
                        <path d="M688.239,557.346L683.692,557.346L684.04,557.693L684.04,560.25C683.92,560.238 683.812,560.202 683.692,560.166L683.692,561.473C683.812,561.509 683.92,561.545 684.04,561.569L684.04,565.805L683.692,566.153L688.239,566.153L688.239,564.498L687.879,564.846L685.347,564.846L685.347,561.521C685.995,561.425 686.655,561.257 687.303,561.377L687.651,561.725L687.651,560.166C686.883,559.89 686.115,560.094 685.347,560.214L685.347,558.653L688.239,558.653L688.239,557.346Z" style="fill:white;"/>
                    </g>
                    <g transform="matrix(25.222,0,0,19.9488,-12776,-8754.54)">
                        <path d="M692.704,560.957C693.639,560.897 694.383,560.118 694.383,559.157C694.383,558.173 693.591,557.37 692.608,557.358L692.608,557.346L688.66,557.346L689.008,557.693L689.008,565.806L688.66,566.153L690.663,566.153L690.315,565.806L690.315,560.969L691.275,560.969L693.556,565.914L693.316,566.153L695.283,566.153L694.935,565.806L692.704,560.957ZM692.608,559.662L690.315,559.662L690.315,558.653L692.584,558.653C692.86,558.653 693.088,558.881 693.088,559.157C693.088,559.434 692.872,559.65 692.608,559.662Z" style="fill:white;"/>
                    </g>
                    <g transform="matrix(25.222,0,0,19.9488,-12776,-8754.54)">
                        <path d="M699.087,557.346C696.651,557.346 694.672,559.325 694.672,561.773C694.672,564.21 696.651,566.189 699.087,566.189C701.536,566.189 703.515,564.21 703.515,561.773C703.515,559.325 701.536,557.346 699.087,557.346ZM699.087,564.87C697.383,564.87 695.991,563.478 695.991,561.773C695.991,560.057 697.383,558.665 699.087,558.665C700.804,558.665 702.196,560.057 702.196,561.773C702.196,563.478 700.804,564.87 699.087,564.87Z" style="fill:white;"/>
                    </g>
                </g>
            </g>
        </g>
    </g>
</svg>
